<svg width="177" height="53" viewBox="0 0 177 53" fill="none" xmlns="http://www.w3.org/2000/svg">
<path d="M8.19357 23.4704L10.8389 22.1617L15.0202 15.8798L16.3002 15.3563L17.6656 21.7255L15.8736 21.9872L14.5082 19.3698L13.4842 23.4704H18.0069L22.7003 24.6919L24.5776 23.4704L27.7349 26.7859L29.1003 20.6785L31.3189 22.947L32.6843 21.0275L34.9029 20.4167L38.1456 17.3631L38.6576 15.8798L41.3029 16.3161L42.4123 17.7993L40.4496 21.9872L45.3136 19.457V18.2355L47.191 17.7993L49.239 19.8933L51.287 17.3631V15.6181L54.615 13.2624L55.9803 11.2557H58.1136L61.8683 3.49058L65.111 0.0878906L66.3056 2.00735L64.4283 4.45031L65.111 6.02078L66.903 6.36977L68.3536 12.8261V18.2355L70.9136 21.8127L72.1936 26.7859L67.7563 23.9067L65.7936 15.6181L64.599 15.8798L64.4283 21.4637L61.1856 26.7859L60.247 34.9L62.4656 35.4235L63.4043 34.2892L65.5376 36.7322L67.159 44.0611L66.9883 48.7725H64.9403L64.1723 42.1416L62.7216 44.1483L59.5643 43.4503L57.0043 41.2691L54.103 42.3161L54.2736 47.0275L51.9696 47.6382L48.5563 50.2557L44.4603 49.7322L42.8389 48.7725L40.2789 49.2087L41.1323 50.2557L39.0843 51.4772L37.4629 50.6919L34.3909 52.0879L29.6976 49.7322L27.9056 45.5443L26.3696 45.7188L24.5776 44.2355L24.4923 43.1013L18.7749 42.4906L17.8362 45.6315L14.2522 43.9738L12.4602 40.9201H8.62023L8.19357 45.806L5.9749 46.504L4.86556 50.9537L4.01223 50.1684L0.428223 40.8329L4.69489 38.7389L4.01223 34.6382L3.32956 30.4503L5.2069 27.7456L4.60956 26.0879L7.16956 23.2959L8.19357 23.4704ZM64.9403 33.7657L68.8656 39.6986L70.1456 39.1751L68.5243 36.7322L64.9403 32.8933V33.7657ZM24.8336 21.7255V19.9805L27.8203 17.7993L30.3803 16.4906H27.3936L24.7483 18.061L23.1269 19.5443V21.7255H24.8336Z" fill="white"/>
<path d="M90.2596 41.0883H94.9828V35.9065H97.5992C101.566 35.9065 104.225 33.5628 104.225 29.8042C104.225 26.0883 101.634 23.6338 97.7691 23.6338H90.2596V41.0883ZM94.9828 32.2247V27.4179H96.6478C98.3043 27.4179 99.2982 28.3042 99.2982 29.8042C99.2982 31.2957 98.3043 32.2247 96.6478 32.2247H94.9828Z" fill="white"/>
<path d="M112.032 41.327C116.28 41.327 118.794 38.5997 118.794 34.577C118.794 30.5542 116.28 27.827 112.032 27.827C107.785 27.827 105.27 30.5542 105.27 34.577C105.27 38.5997 107.785 41.327 112.032 41.327ZM112.066 37.8497C110.809 37.8497 110.061 36.5969 110.061 34.5429C110.061 32.4889 110.809 31.2361 112.066 31.2361C113.255 31.2361 114.003 32.4889 114.003 34.5429C114.003 36.5969 113.255 37.8497 112.066 37.8497Z" fill="white"/>
<path d="M126.983 41.327C130.849 41.327 133.219 39.1025 133.27 35.6338H128.92C128.818 37.0059 128.079 37.7474 127.051 37.7474C125.819 37.7474 125.012 36.6906 125.012 34.5429C125.012 32.3952 125.819 31.3383 127.051 31.3383C128.088 31.3383 128.793 32.0798 128.92 33.452H133.27C133.244 30.0429 130.823 27.827 126.983 27.827C122.736 27.827 120.221 30.5542 120.221 34.577C120.221 38.5997 122.736 41.327 126.983 41.327Z" fill="white"/>
<path d="M141.491 41.327C145.356 41.327 147.726 39.1025 147.777 35.6338H143.427C143.325 37.0059 142.586 37.7474 141.559 37.7474C140.327 37.7474 139.52 36.6906 139.52 34.5429C139.52 32.3952 140.327 31.3383 141.559 31.3383C142.595 31.3383 143.3 32.0798 143.427 33.452H147.777C147.751 30.0429 145.33 27.827 141.491 27.827C137.243 27.827 134.729 30.5542 134.729 34.577C134.729 38.5997 137.243 41.327 141.491 41.327Z" fill="white"/>
<path d="M154.129 35.0883V27.9974H149.712V41.0883H154.129L157.765 33.9633V41.0883H162.182V27.9974H157.765L154.129 35.0883Z" fill="white"/>
<path d="M172.079 41.0883H176.428V27.9974H170.312C166.549 27.9974 164.17 29.9065 164.195 32.5656C164.178 34.0571 165.07 35.2929 166.634 36.0258L164.06 41.0883H168.375L170.575 36.7588H172.079V41.0883ZM172.079 33.9292H170.414C169.165 33.9292 168.587 33.3156 168.613 32.7361C168.587 32.1906 169.131 31.5088 170.312 31.5088H172.079V33.9292Z" fill="white"/>
</svg>
